#N canvas 532 281 604 564 10;
#X obj 103 361 outlet~;
#X obj 95 222 *~ 0;
#X obj 223 225 *~ 0;
#X obj 343 228 *~ 0;
#X obj 465 232 *~ 0;
#X obj 96 256 +~;
#X obj 99 280 +~;
#X obj 101 317 +~;
#X text 59 24 envmix combines all the envelopes regarding their respective
qoutinents syntax: envmix oscname paramname voice;
#X obj 100 158 r~ alpha-\$3;
#X obj 223 154 r~ beta-\$3;
#X obj 344 150 r~ gamma-\$3;
#X obj 463 150 r~ delta-\$3;
#X obj 121 190 r \$2/alpha-\$1;
#X obj 246 195 r \$2/beta-\$1;
#X obj 365 194 r \$2/gamma-\$1;
#X obj 487 188 r \$2/delta-\$1;
#X connect 1 0 5 0;
#X connect 2 0 5 1;
#X connect 3 0 6 1;
#X connect 4 0 7 1;
#X connect 5 0 6 0;
#X connect 6 0 7 0;
#X connect 7 0 0 0;
#X connect 9 0 1 0;
#X connect 10 0 2 0;
#X connect 11 0 3 0;
#X connect 12 0 4 0;
#X connect 13 0 1 1;
#X connect 14 0 2 1;
#X connect 15 0 3 1;
#X connect 16 0 4 1;
