#N canvas 0 0 979 475 10;
#X obj 337 53 osc~;
#X obj 55 340 phasor~;
#X obj 55 310 +~;
#X obj 645 236 inlet~;
#X obj 628 272 +~;
#X obj 628 308 outlet~;
#X obj 51 93 inlet;
#X obj 104 93 inlet;
#X text 53 70 freq;
#X text 104 69 amount;
#X obj 56 268 +~;
#X text 657 17 this is a single oscillator a voice should consist of
three of them it receives frequency and volume messages it is controlled
by oscctl patch who finds it by name syntax: osc name voice;
#X obj 88 174 r~ delta-\$2;
#X obj 293 90 r~ alpha-\$2;
#X obj 408 89 r~ beta-\$2;
#X obj 88 232 *~ 0;
#X obj 113 198 r freq/delta-\$1;
#X connect 2 0 1 0;
#X connect 3 0 4 1;
#X connect 4 0 5 0;
#X connect 6 0 10 0;
#X connect 10 0 2 0;
#X connect 12 0 15 0;
#X connect 15 0 10 1;
#X connect 16 0 15 1;
