#N canvas 0 91 1265 916 10;
#X obj 317 185 inlet;
#X text 354 183 trigger;
#X obj 322 471 pack;
#X obj 302 291 moses;
#X text 356 307 from;
#X text 358 319 here;
#X obj 293 338 t b b;
#X text 301 309 from;
#X text 303 321 zero;
#X msg 486 475 0;
#X text 610 482 decay time;
#X text 215 350 release time;
#X text 601 561 DECAY;
#X obj 558 468 del;
#X obj 563 497 f;
#X obj 594 543 pack;
#X obj 176 415 pack;
#X obj 330 220 sel 0;
#X msg 360 259 stop;
#X obj 348 336 t b;
#X obj 224 373 r \$1-rls;
#X obj 427 132 r \$1-atk;
#X obj 615 507 r \$1-dcy;
#X obj 612 458 r \$1-sst;
#X obj 324 636 line~;
#X obj 81 233 osc~ 0;
#X obj 149 686 *~;
#X obj 202 686 *~;
#X obj 175 736 +~;
#X obj 168 787 outlet~;
#X floatatom 516 181 5 0 0 0 - - -;
#X obj 249 162 pow -1;
#X text 424 113 attack time or vibrato period in milliseconds;
#X text 84 4 envelope generator generates signal inside -1..1 user
of the signal should scale it however she sees fit syntax: env envname
voice TODO voice parameter is unused;
#X text 605 436 sustain level \, should be 0..1;
#X obj 316 441 f 1;
#X obj 170 191 * 1000;
#X obj 182 594 r \$1-vibrato;
#X text 182 575 0 for ADSR \, 1 for vibrato;
#X obj 182 618 * -1;
#X obj 182 643 + 1;
#X connect 0 0 17 0;
#X connect 0 0 25 1;
#X connect 2 0 24 0;
#X connect 3 0 6 0;
#X connect 3 1 19 0;
#X connect 6 0 35 0;
#X connect 6 1 9 0;
#X connect 9 0 24 0;
#X connect 13 0 14 0;
#X connect 14 0 15 0;
#X connect 15 0 24 0;
#X connect 16 0 24 0;
#X connect 17 0 18 0;
#X connect 17 0 16 0;
#X connect 17 1 3 0;
#X connect 18 0 13 0;
#X connect 19 0 35 0;
#X connect 20 0 16 1;
#X connect 21 0 2 1;
#X connect 21 0 13 0;
#X connect 21 0 30 0;
#X connect 21 0 31 0;
#X connect 22 0 15 1;
#X connect 23 0 14 1;
#X connect 24 0 27 1;
#X connect 25 0 26 0;
#X connect 26 0 28 0;
#X connect 27 0 28 1;
#X connect 28 0 29 0;
#X connect 31 0 36 0;
#X connect 35 0 2 0;
#X connect 36 0 25 0;
#X connect 37 0 39 0;
#X connect 37 0 26 1;
#X connect 39 0 40 0;
#X connect 40 0 27 0;
