#N canvas 1214 87 671 908 10;
#X obj 81 330 osc~;
#X obj 56 523 phasor~;
#X obj 56 485 +~;
#X obj 88 799 inlet~;
#X obj 56 838 +~;
#X obj 56 874 outlet~;
#X obj 56 38 inlet;
#X text 58 15 freq;
#X obj 56 203 +~;
#X obj 88 109 r~ delta-\$2;
#X obj 117 366 r~ alpha-\$2;
#X obj 243 672 r~ beta-\$2;
#X obj 88 167 *~ 0;
#X obj 113 133 r freq/delta-\$1;
#X obj 339 672 r~ beta-\$2;
#X text 401 24 this is a single oscillator;
#X obj 55 551 -~ 0.5;
#X text 86 71 Use "env delta" for vibrato.;
#X obj 157 549 osc~;
#X obj 98 258 r fm_freq/pitch-\$1;
#X obj 81 294 *~;
#X obj 129 399 r fm/alpha-\$1;
#X obj 85 457 *~;
#X obj 112 429 *~;
#X obj -81 540 envmix \$1 saw \$2;
#X obj 36 594 *~;
#X obj 213 551 envmix \$1 sine \$2;
#X obj 156 593 *~;
#X obj 56 639 +~;
#X text 404 44 SYNTAX;
#X text 408 61 osc <configId> <voiceId>;
#X connect 0 0 22 0;
#X connect 1 0 16 0;
#X connect 2 0 1 0;
#X connect 2 0 18 0;
#X connect 3 0 4 1;
#X connect 4 0 5 0;
#X connect 6 0 8 0;
#X connect 8 0 2 0;
#X connect 8 0 20 0;
#X connect 9 0 12 0;
#X connect 10 0 23 0;
#X connect 12 0 8 1;
#X connect 13 0 12 1;
#X connect 16 0 25 1;
#X connect 18 0 27 0;
#X connect 19 0 20 1;
#X connect 20 0 0 0;
#X connect 21 0 23 1;
#X connect 22 0 2 1;
#X connect 23 0 22 1;
#X connect 24 0 25 0;
#X connect 25 0 28 0;
#X connect 26 0 27 1;
#X connect 27 0 28 1;
#X connect 28 0 4 0;
