#N canvas -4 -4 1280 956 12;
#X obj 115 51 kbd;
#X text 106 305;
#X floatatom 265 84 5 0 0 0 - - -;
#X floatatom 271 110 5 0 0 0 - - -;
#X obj 190 690 output;
#X floatatom 251 606 5 0 0 0 - - -;
#X msg 258 661 MUTE;
#X obj 135 507 osc~;
#X obj 115 100 mtof;
#X obj 145 576 *~;
#X obj -89 356 *~;
#X obj -91 317 osc~;
#X floatatom 1 312 5 1 99999 0 - - -;
#X floatatom -50 246 5 1 40 0 - - -;
#X obj -111 251 *~;
#X obj 116 139 sig~;
#X connect 0 0 3 0;
#X connect 0 0 8 0;
#X connect 0 1 2 0;
#X connect 0 1 9 1;
#X connect 4 0 5 0;
#X connect 5 0 4 1;
#X connect 6 0 4 2;
#X connect 7 0 9 0;
#X connect 8 0 15 0;
#X connect 9 0 4 0;
#X connect 10 0 7 0;
#X connect 11 0 10 0;
#X connect 12 0 10 1;
#X connect 13 0 14 1;
#X connect 14 0 11 0;
#X connect 15 0 14 0;
#X connect 15 0 7 0;
