#N canvas 4 52 1280 956 12;
#X obj 407 -63 kbd;
#X floatatom 445 -41 5 0 0 0 - - -;
#X floatatom 295 -26 5 0 0 0 - - -;
#X floatatom 789 240 5 1 99999 0 - - -;
#N canvas 0 0 450 300 (subpatch) 0;
#X array outscope 100 float 1;
#A 0 0 0 0 0 0 0 0 0 0 0 0 0 0 0 0 0 0 0 0 0 0 0 0 0 0 0 0 0 0 0 0
0 0 0 0 0 0 0 0 0 0 0 0 0 0 0 0 0 0 0 0 0 0 0 0 0 0 0 0 0 0 0 0 0 0
0 0 0 0 0 0 0 0 0 0 0 0 0 0 0 0 0 0 0 0 0 0 0 0 0 0 0 0 0 0 0 0 0 0
0;
#X coords 0 1 99 -1 200 140 1 0 0;
#X restore 837 669 graph;
#X obj 538 745 tabwrite~ outscope;
#X obj 541 645 loadbang;
#X obj 541 699 metro 500;
#X obj 407 -11 +;
#X floatatom 522 -60 5 -4 4 0 - - -;
#X obj 481 -15 * 12;
#X obj 789 -38 vsl 15 256 0 20 0 0 empty empty empty 0 -9 0 10 -262144
-1 -1 4500 1;
#N canvas 0 0 841 756 sinesc~ 0;
#X obj 16 403 outlet~;
#X obj 106 132 vsl 15 128 0 20 0 0 empty empty freq 0 -9 0 10 -262144
-1 -1 0 1;
#X obj 26 299 osc~;
#X floatatom 137 268 5 0 1 0 - - -;
#X obj 32 337 *~;
#X floatatom 105 291 5 0 0 0 - - -;
#X obj 138 132 vsl 15 128 0 0.1 0 0 empty empty ampl 0 -9 0 10 -262144
-1 -1 0 1;
#X connect 1 0 2 0;
#X connect 1 0 5 0;
#X connect 2 0 4 0;
#X connect 3 0 4 1;
#X connect 4 0 0 0;
#X connect 6 0 3 0;
#X coords 0 -1 1 1 85 210 1 100 100;
#X restore 574 -139 pd sinesc~;
#N canvas 339 297 841 756 sinesc~ 0;
#X obj 16 403 outlet~;
#X obj 106 132 vsl 15 128 0 5 0 0 empty empty freq 0 -9 0 10 -262144
-1 -1 0 1;
#X obj 26 299 osc~;
#X floatatom 137 268 5 0 1 0 - - -;
#X obj 32 337 *~;
#X floatatom 105 291 5 0 0 0 - - -;
#X obj 138 132 vsl 15 128 0 1 0 0 empty empty ampl 0 -9 0 10 -262144
-1 -1 0 1;
#X connect 1 0 2 0;
#X connect 1 0 5 0;
#X connect 2 0 4 0;
#X connect 3 0 4 1;
#X connect 4 0 0 0;
#X connect 6 0 3 0;
#X coords 0 -1 1 1 85 210 1 100 100;
#X restore -21 -19 pd sinesc~;
#X obj -19 225 +~;
#X obj 408 92 pack 0 0 0;
#X obj 299 199 svoice~;
#X obj 369 198 svoice~;
#X obj 448 196 svoice~;
#X obj 523 196 svoice~;
#X obj 407 48 poly 6 1;
#X obj 408 135 route 1 2 3 4 5 6;
#X obj 664 196 svoice~;
#X obj 602 196 svoice~;
#X obj 772 420 loadbang;
#X msg 772 444 \; pd dsp 1;
#X obj 550 325 / 512;
#X obj 451 332 *~ 0.001;
#X obj 418 383 vsl 15 256 0 1 0 1 empty empty empty 0 -9 0 10 -262144
-1 -1 6700 1;
#X obj 467 699 *~;
#X floatatom 441 664 5 0 0 0 - - -;
#X obj 462 741 dac~;
#X obj 509 411 clip~ -1 1;
#X connect 0 0 2 0;
#X connect 0 0 8 0;
#X connect 0 1 1 0;
#X connect 0 1 20 1;
#X connect 3 0 26 0;
#X connect 6 0 7 0;
#X connect 7 0 5 0;
#X connect 8 0 20 0;
#X connect 9 0 10 0;
#X connect 10 0 8 1;
#X connect 11 0 3 0;
#X connect 13 0 14 0;
#X connect 15 0 21 0;
#X connect 16 0 27 0;
#X connect 17 0 27 0;
#X connect 18 0 27 0;
#X connect 19 0 27 0;
#X connect 20 0 15 0;
#X connect 20 1 15 1;
#X connect 20 2 15 2;
#X connect 21 0 16 0;
#X connect 21 1 17 0;
#X connect 21 2 18 0;
#X connect 21 3 19 0;
#X connect 21 4 23 0;
#X connect 21 5 22 0;
#X connect 22 0 27 0;
#X connect 23 0 27 0;
#X connect 24 0 25 0;
#X connect 26 0 27 1;
#X connect 27 0 32 0;
#X connect 28 0 30 0;
#X connect 29 0 31 0;
#X connect 29 0 31 1;
#X connect 30 0 29 1;
#X connect 32 0 29 0;
#X connect 32 0 5 0;
