#N canvas 0 0 1280 956 12;
#X obj 405 30 kbd;
#X floatatom 443 52 5 0 0 0 - - -;
#X floatatom 293 67 5 0 0 0 - - -;
#X obj 428 513 osc~;
#X obj 408 106 mtof;
#X obj 438 582 *~;
#X obj 204 362 *~;
#X obj 202 323 osc~;
#X floatatom 114 309 5 1 99999 0 - - -;
#X floatatom 297 237 5 1 40 0 - - -;
#X obj 225 257 *~;
#X obj 409 145 sig~;
#X text 399 311;
#X obj 462 672 *~ 0.01;
#X obj 427 766 dac~;
#N canvas 0 0 450 300 (subpatch) 0;
#X array outscope 100 float 1;
#A 0 0 0 0 0 0 0 0 0 0 0 0 0 0 0 0 0 0 0 0 0 0 0 0 0 0 0 0 0 0 0 0
0 0 0 0 0 0 0 0 0 0 0 0 0 0 0 0 0 0 0 0 0 0 0 0 0 0 0 0 0 0 0 0 0 0
0 0 0 0 0 0 0 0 0 0 0 0 0 0 0 0 0 0 0 0 0 0 0 0 0 0 0 0 0 0 0 0 0 0
0;
#X coords 0 1 99 -1 200 140 1 0 0;
#X restore 837 669 graph;
#X obj 483 769 tabwrite~ outscope;
#X obj 541 645 loadbang;
#X obj 541 699 metro 500;
#X obj 405 82 +;
#X floatatom 520 33 5 -4 4 0 - - -;
#X obj 479 78 * 12;
#X obj 593 -83 vsl 15 128 0 5 0 0 empty empty empty 0 -9 0 10 -262144
-1 -1 12700 1;
#X obj 529 99 osc~;
#X floatatom 668 70 5 0 1 0 - - -;
#X obj 535 137 *~;
#X floatatom 594 72 5 0 0 0 - - -;
#X obj 418 199 *~;
#X obj 669 -67 vsl 15 128 0 0.1 0 0 empty empty empty 0 -9 0 10 -262144
-1 -1 0 1;
#X obj 519 166 +~ 1;
#X floatatom 325 131 5 0 0 0 - - -;
#X obj 405 441 *~;
#X obj 286 393 +~ 1;
#X obj 86 -34 vsl 15 256 0 20 0 0 empty empty empty 0 -9 0 10 -262144
-1 -1 400 1;
#X connect 0 0 2 0;
#X connect 0 0 19 0;
#X connect 0 1 1 0;
#X connect 0 1 5 1;
#X connect 3 0 5 0;
#X connect 4 0 11 0;
#X connect 4 0 30 0;
#X connect 5 0 13 0;
#X connect 6 0 32 0;
#X connect 7 0 6 0;
#X connect 8 0 6 1;
#X connect 9 0 10 1;
#X connect 10 0 7 0;
#X connect 11 0 27 0;
#X connect 13 0 14 0;
#X connect 13 0 14 1;
#X connect 13 0 16 0;
#X connect 17 0 18 0;
#X connect 18 0 16 0;
#X connect 19 0 4 0;
#X connect 20 0 21 0;
#X connect 21 0 19 1;
#X connect 22 0 23 0;
#X connect 22 0 26 0;
#X connect 23 0 25 0;
#X connect 24 0 25 1;
#X connect 25 0 29 0;
#X connect 27 0 10 0;
#X connect 27 0 31 1;
#X connect 28 0 24 0;
#X connect 29 0 27 1;
#X connect 31 0 3 0;
#X connect 32 0 31 0;
#X connect 33 0 8 0;
