#N canvas 0 0 592 336 10;
#X obj 388 156 t b;
#X obj 388 105 f;
#X obj 388 54 inlet;
#X obj 388 181 f;
#X msg 482 174 0;
#X msg 388 79 bang;
#X obj 388 130 moses 1;
#X obj 482 149 t b f;
#X obj 444 111 moses 1;
#X obj 91 148 dbtorms;
#X obj 444 86 r master-lvl;
#X obj 91 48 r master-lvl;
#X obj 388 207 s master-lvl;
#X obj 28 169 inlet~;
#X obj 213 195 inlet;
#X obj 229 218 s master-lvl;
#X msg 101 72 set \$1;
#X obj 101 98 outlet;
#X msg 213 241 \; pd dsp 1;
#X obj 91 201 line~;
#X obj 31 219 *~;
#X obj 31 247 dac~;
#X obj 91 173 pack 0 50;
#X text 17 149 audio in;
#X obj 28 194 hip~ 1;
#X connect 0 0 3 0;
#X connect 1 0 6 0;
#X connect 2 0 5 0;
#X connect 3 0 12 0;
#X connect 4 0 12 0;
#X connect 5 0 1 0;
#X connect 6 0 0 0;
#X connect 6 1 7 0;
#X connect 7 0 4 0;
#X connect 8 1 3 1;
#X connect 9 0 22 0;
#X connect 10 0 1 1;
#X connect 10 0 8 0;
#X connect 11 0 9 0;
#X connect 11 0 16 0;
#X connect 13 0 24 0;
#X connect 14 0 15 0;
#X connect 14 0 18 0;
#X connect 16 0 17 0;
#X connect 19 0 20 1;
#X connect 20 0 21 0;
#X connect 20 0 21 1;
#X connect 22 0 19 0;
#X connect 24 0 20 0;
