#N canvas 140 0 849 887 12;
#X obj 592 94 receive vibratoampl;
#X obj 544 70 receive vibratofreq;
#X obj 545 96 osc~;
#X obj 572 128 *~;
#X obj 428 513 osc~;
#X obj 408 106 mtof;
#X obj 438 582 *~;
#X obj 204 362 *~;
#X obj 202 323 osc~;
#X floatatom 83 192 5 1 99999 0 - - -;
#X floatatom 297 237 5 1 40 0 - - -;
#X obj 225 257 *~;
#X obj 409 145 sig~;
#X obj 418 199 *~;
#X obj 572 159 +~ 1;
#X floatatom 325 131 5 0 0 0 - - -;
#X obj 405 441 *~;
#X obj 286 393 +~ 1;
#X obj 64 232 +~;
#X obj 405 25 inlet key(1);
#X obj 437 689 outlet~;
#X obj 406 63 unpack f f;
#X connect 0 0 3 1;
#X connect 1 0 2 0;
#X connect 2 0 3 0;
#X connect 3 0 14 0;
#X connect 4 0 6 0;
#X connect 5 0 12 0;
#X connect 5 0 15 0;
#X connect 6 0 20 0;
#X connect 7 0 17 0;
#X connect 8 0 7 0;
#X connect 9 0 18 1;
#X connect 10 0 11 1;
#X connect 11 0 8 0;
#X connect 12 0 13 0;
#X connect 13 0 11 0;
#X connect 13 0 16 1;
#X connect 14 0 13 1;
#X connect 16 0 4 0;
#X connect 17 0 16 0;
#X connect 18 0 7 1;
#X connect 19 0 21 0;
#X connect 21 0 5 0;
#X connect 21 1 6 1;
