#N canvas 4 63 1280 956 10;
#X obj 156 608 poly 6 1;
#X obj 201 680 route 1 2 3 4 5 6;
#X obj 158 637 pack 0 0 0;
#X obj 127 330 notein;
#X obj 181 888 output;
#X floatatom 204 825 5 0 0 0 - - -;
#X msg 253 839 MUTE;
#X obj 316 91 envctl alpha;
#X obj 506 91 envctl beta;
#X obj 697 91 envctl gamma;
#X obj 887 91 envctl delta;
#X obj 338 289 oscctl itty;
#X floatatom 60 478 5 0 0 0 - - -;
#X text 317 57 Alpha \, beta \, gamma and delta are the four envelopes
;
#X text 329 390 itty \, bitty and boat are the three oscillators;
#X obj 106 705 voice 0;
#X obj 109 783 voice;
#X obj 110 811 voice;
#X obj 110 838 voice;
#X obj 107 731 voice 1;
#X obj 108 755 voice 2;
#X floatatom 56 707 5 0 0 0 - - -;
#X obj 202 343 kbd;
#X floatatom 249 443 5 0 0 0 - - -;
#X floatatom 56 730 5 0 0 0 - - -;
#X floatatom 53 751 5 0 0 0 - - -;
#X floatatom 54 784 5 0 0 0 - - -;
#X floatatom 55 808 5 0 0 0 - - -;
#X floatatom 58 834 5 0 0 0 - - -;
#X floatatom 348 720 5 0 0 0 - - -;
#X floatatom 263 408 5 0 0 0 - - -;
#X connect 0 0 2 0;
#X connect 0 1 2 1;
#X connect 0 2 2 2;
#X connect 1 0 15 1;
#X connect 1 0 21 0;
#X connect 1 1 19 1;
#X connect 1 1 24 0;
#X connect 1 2 20 1;
#X connect 1 2 25 0;
#X connect 1 3 16 1;
#X connect 1 3 26 0;
#X connect 1 4 17 1;
#X connect 1 4 27 0;
#X connect 1 5 18 1;
#X connect 1 5 28 0;
#X connect 1 6 29 0;
#X connect 2 0 1 0;
#X connect 3 0 0 0;
#X connect 3 0 12 0;
#X connect 3 1 0 1;
#X connect 4 0 5 0;
#X connect 5 0 4 1;
#X connect 6 0 4 2;
#X connect 15 0 19 0;
#X connect 16 0 17 0;
#X connect 17 0 18 0;
#X connect 18 0 4 0;
#X connect 19 0 20 0;
#X connect 20 0 16 0;
#X connect 22 0 0 0;
#X connect 22 0 23 0;
#X connect 22 1 0 1;
#X connect 22 1 30 0;
