#N canvas 5 62 1280 956 10;
#X obj 156 608 poly 6 1;
#X obj 201 680 route 1 2 3 4 5 6;
#X obj 158 637 pack 0 0 0;
#X obj 127 330 notein;
#X obj 140 899 output;
#X floatatom 201 835 5 0 0 0 - - -;
#X msg 208 870 MUTE;
#X obj 506 91 envctl beta;
#X obj 697 91 envctl gamma;
#X obj 887 91 envctl delta;
#X floatatom 60 478 5 0 0 0 - - -;
#X text 317 57 Alpha \, beta \, gamma and delta are the four envelopes
;
#X text 329 390 itty \, bitty and boat are the three oscillators;
#X floatatom 312 705 5 0 0 0 - - -;
#X obj 202 343 kbd;
#X floatatom 249 443 5 0 0 0 - - -;
#X floatatom 312 728 5 0 0 0 - - -;
#X floatatom 309 749 5 0 0 0 - - -;
#X floatatom 310 782 5 0 0 0 - - -;
#X floatatom 311 806 5 0 0 0 - - -;
#X floatatom 314 832 5 0 0 0 - - -;
#X floatatom 304 860 5 0 0 0 - - -;
#X floatatom 263 408 5 0 0 0 - - -;
#X obj 316 91 envctl \$0-alpha;
#X obj 335 289 oscctl \$0-itty;
#X obj 106 705 voice \$0 0;
#X obj 107 731 voice \$0 1;
#X obj 108 755 voice \$0 2;
#X obj 109 783 voice \$0 3;
#X obj 110 811 voice \$0 4;
#X obj 110 838 voice \$0 5;
#X connect 0 0 2 0;
#X connect 0 1 2 1;
#X connect 0 2 2 2;
#X connect 1 0 13 0;
#X connect 1 0 25 1;
#X connect 1 1 16 0;
#X connect 1 1 26 1;
#X connect 1 2 17 0;
#X connect 1 2 27 1;
#X connect 1 3 18 0;
#X connect 1 3 28 1;
#X connect 1 4 19 0;
#X connect 1 4 29 1;
#X connect 1 5 20 0;
#X connect 1 5 30 1;
#X connect 1 6 21 0;
#X connect 2 0 1 0;
#X connect 3 0 0 0;
#X connect 3 0 10 0;
#X connect 3 1 0 1;
#X connect 4 0 5 0;
#X connect 5 0 4 1;
#X connect 6 0 4 2;
#X connect 14 0 0 0;
#X connect 14 0 15 0;
#X connect 14 1 0 1;
#X connect 14 1 22 0;
#X connect 25 0 26 0;
#X connect 26 0 27 0;
#X connect 27 0 28 0;
#X connect 28 0 29 0;
#X connect 29 0 30 0;
#X connect 30 0 4 0;
