#N canvas 0 452 1253 468 10;
#X obj 482 90 inlet;
#X text 467 63 trigger&velocity;
#X obj 93 264 +~;
#X obj 110 232 inlet~;
#X obj 93 290 outlet~;
#X obj 783 140 env beta;
#X obj 605 195 s~ delta-$0;
#X obj 697 175 s~ gamma-$0;
#X obj 247 147 osc itty \$0;
#X obj 167 173 osc bitty \$0;
#X obj 92 204 osc boat \$0;
#X obj 783 169 s~ beta-$0;
#X obj 873 158 s~ alpha-$0;
#X obj 872 130 env alpha;
#X obj 697 149 env gamma;
#X obj 606 160 env delta;
#X text 51 71 a single voice can play one note at a time;
#X text 53 98 SYNTAX: voice <name>;
#X obj 482 268 s voice-on-$1;
#X text 583 269 For the inspector (view);
#X connect 0 0 5 0;
#X connect 0 0 13 0;
#X connect 0 0 14 0;
#X connect 0 0 15 0;
#X connect 0 0 18 0;
#X connect 2 0 4 0;
#X connect 3 0 2 1;
#X connect 5 0 11 0;
#X connect 8 0 9 2;
#X connect 9 0 10 2;
#X connect 10 0 2 0;
#X connect 13 0 12 0;
#X connect 14 0 7 0;
#X connect 15 0 6 0;
